<svg xmlns="http://www.w3.org/2000/svg" viewBox="0 0 256 256" width="256" height="256">
  <defs>
    <linearGradient id="bg" x1="0%" y1="0%" x2="100%" y2="100%">
      <stop offset="0%" style="stop-color:#2F2E8B"/>
      <stop offset="100%" style="stop-color:#4945FF"/>
    </linearGradient>
    <linearGradient id="folder" x1="0%" y1="0%" x2="0%" y2="100%">
      <stop offset="0%" style="stop-color:#fff;stop-opacity:0.95"/>
      <stop offset="100%" style="stop-color:#fff;stop-opacity:0.75"/>
    </linearGradient>
  </defs>
  <rect width="256" height="256" rx="48" fill="url(#bg)"/>
  <!-- Folder body -->
  <path d="M48 92h72l24 28h64c13.2 0 24 10.8 24 24v56c0 13.2-10.8 24-24 24H48c-13.2 0-24-10.8-24-24v-76c0-13.2 10.8-24 24-24z" fill="url(#folder)" stroke="#fff" stroke-width="4" stroke-linejoin="round"/>
  <!-- Folder tab -->
  <path d="M48 92c0-6.6 5.4-12 12-12h68l-12 28H48z" fill="#fff" fill-opacity="0.6"/>
  <!-- Upload arrow -->
  <path d="M128 118v44M128 118l-18 18M128 118l18 18" stroke="#2F2E8B" stroke-width="8" stroke-linecap="round" stroke-linejoin="round"/>
  <circle cx="128" cy="178" r="12" fill="#2F2E8B"/>
  <!-- Path line (small path icon) -->
  <path d="M176 148h24M176 164h16" stroke="#2F2E8B" stroke-width="4" stroke-linecap="round" opacity="0.9"/>
</svg>
